inDegrees=no
num_controls=7
num_derivatives=13
num_iterations=267
num_multipliers=7
num_parameters=0
num_slacks=7
num_states=26
objective=0.802823
objective_accelerations=0.334024
objective_balance=0.027992
objective_effort=0.014038
objective_height=0.218331
objective_ligament=0.208438
solver_duration=3350.348464
status=Solve_Succeeded
success=true
DataType=double
version=3
OpenSimVersion=4.5
endheader
time	/jointset/ground_pelvis/pelvis_tilt/value	/jointset/ground_pelvis/pelvis_tx/value	/jointset/ground_pelvis/pelvis_ty/value	/jointset/hip_l/hip_flexion_l/value	/jointset/hip_l/hip_adduction_l/value	/jointset/hip_l/hip_rotation_l/value	/jointset/back/lumbar_extension/value	/jointset/patellofemoral_l/patellar_flexion_l/value	/jointset/knee_l/knee_flexion_l/value	/jointset/knee_l/knee_adduction_l/value	/jointset/knee_l/knee_rotation_l/value	/jointset/ankle_l/ankle_angle_l/value	/jointset/subtalar_l/subtalar_angle_l/value	/jointset/ground_pelvis/pelvis_tilt/speed	/jointset/ground_pelvis/pelvis_tx/speed	/jointset/ground_pelvis/pelvis_ty/speed	/jointset/hip_l/hip_flexion_l/speed	/jointset/hip_l/hip_adduction_l/speed	/jointset/hip_l/hip_rotation_l/speed	/jointset/back/lumbar_extension/speed	/jointset/patellofemoral_l/patellar_flexion_l/speed	/jointset/knee_l/knee_flexion_l/speed	/jointset/knee_l/knee_adduction_l/speed	/jointset/knee_l/knee_rotation_l/speed	/jointset/ankle_l/ankle_angle_l/speed	/jointset/subtalar_l/subtalar_angle_l/speed	/forceset/tau_hip_flexion_l	/forceset/tau_hip_adduction_l	/forceset/tau_hip_rotation_l	/forceset/tau_knee_flexion_l	/forceset/tau_ankle_angle_l	/forceset/tau_subtalar_angle_l	/forceset/tau_lumbar_extension	lambda_cid13_p0	lambda_cid13_p1	lambda_cid13_p2	lambda_cid13_p3	lambda_cid13_p4	lambda_cid13_p5	lambda_cid14_p0	/jointset/ground_pelvis/pelvis_tilt/accel	/jointset/ground_pelvis/pelvis_tx/accel	/jointset/ground_pelvis/pelvis_ty/accel	/jointset/hip_l/hip_flexion_l/accel	/jointset/hip_l/hip_adduction_l/accel	/jointset/hip_l/hip_rotation_l/accel	/jointset/back/lumbar_extension/accel	/jointset/patellofemoral_l/patellar_flexion_l/accel	/jointset/knee_l/knee_flexion_l/accel	/jointset/knee_l/knee_adduction_l/accel	/jointset/knee_l/knee_rotation_l/accel	/jointset/ankle_l/ankle_angle_l/accel	/jointset/subtalar_l/subtalar_angle_l/accel	gamma_cid13_p0	gamma_cid13_p1	gamma_cid13_p2	gamma_cid13_p3	gamma_cid13_p4	gamma_cid13_p5	gamma_cid14_p0
0.5	0.02190379738557711	0.04916783527521924	0.9302641704154561	0.2547821794465562	-0.2260158041734793	-0.3389583915428507	-0.3907533995990225	0.2189518565621155	0.2189518565611137	-0.03855736356820233	-0.1715595103682505	0.001770933360938851	0.07475960752445651	0.06952316137862635	0.03866198256185007	0.01748054763182482	-0.1933393404156392	0.007183551939435014	-0.02182801875841998	-0.009284456789150861	-0.1111806876567991	-0.1111806876568146	-0.0257104359398416	0.01070966367522224	0.00727371641049003	0.01080249922193769	-0.02221177183758749	0.05860017675958302	-0.007096056105735681	-0.1707608988457577	0.1737059936622705	-0.06467822695110102	0.1146131963092216	5.027906127276704	25.0051786009307	-1.923061242013015	-0.7932040820860108	-704.4630215599552	-21.57270094669651	-22.17700946746335	0.1085423132598132	0.03993135915258155	0.01743930436525293	-0.2595839024802969	0.01019785412256139	-0.02994239474632018	-0.00792716225979649	-0.1488747202520438	-0.1488747202520443	-0.03526916753417481	0.01488102119605538	-0.005535972204520491	0.009092229554280195	-4.675897031609784e-10	-1.813380975804648e-09	1.258632623598714e-09	4.171768852988756e-10	-4.886011432929045e-09	-1.101550859235194e-09	-2.099675123378037e-10
0.51	0.02260433254089027	0.049556420195746	0.9304398180338267	0.2528360976947824	-0.2259434715072354	-0.3391781195354954	-0.3908465193401208	0.2178327946295915	0.2178327946283093	-0.03881619019179543	-0.1714516687083214	0.001843425160277537	0.07486808560492342	0.07058183325285161	0.0390524340950765	0.01764781987534499	-0.195868262304107	0.007282664545441964	-0.02211647916193717	-0.009338421389274074	-0.1126264303803947	-0.1126264303803934	-0.02605375972515474	0.01085830636663935	0.007223418187956847	0.01089227819418518	-0.02182795194639942	0.0586763052640411	-0.007101288491979522	-0.1701959547232912	0.173026625357839	-0.06475005173135868	0.1143990198332338	4.809071309340804	25.05773578828309	-1.91207622823501	-0.7116047970505996	-704.4174489192399	-21.52912837167102	-22.15309735116285	0.1042242750986742	0.03821699962036958	0.016196784008091	-0.2482341769493684	0.009720667994808301	-0.0281330909750678	-0.003970594907783571	-0.141633736845696	-0.1416337368401074	-0.03369486260503055	0.01480188494165893	-0.004960609161833012	0.008795070403148093	-4.631960127949485e-10	-1.836699252317117e-09	1.261930223187212e-09	4.083375581612286e-10	-4.862104918217332e-09	-1.107415301273814e-09	-2.126148098751505e-10
0.52	0.02331539334485272	0.04994883262146936	0.9306171034945516	0.2508649891554153	-0.2258701571742225	-0.339400699177716	-0.3909401466243757	0.2166994333320209	0.2166994333310139	-0.03907841622855	-0.1713423514226046	0.001915377204972365	0.07497743634298806	0.07162829115109609	0.03942748360117142	0.01780811610266795	-0.1983446979887392	0.007379885317836438	-0.02239834867859309	-0.009385965430762274	-0.1140405606411805	-0.1140405606411623	-0.02639031865361665	0.01100478873061851	0.007165765489953	0.0109770307400875	-0.0214441320525755	0.05875243376834308	-0.007106520885083114	-0.1696310105997459	0.17234725705361	-0.06482187651160544	0.1141848433591466	4.58911150526979	25.11043828834245	-1.901055367669253	-0.6292679835926905	-704.3888386362325	-21.48821747072336	-22.12873354235594	0.1060995180687278	0.03685095372072402	0.01604410112572188	-0.2490866617126448	0.009819487400888104	-0.02862421737521236	-0.006643050529874676	-0.142552227691065	-0.1425522276910652	-0.0339161961628291	0.01444895570706646	-0.007006867305601649	0.008086944283259736	-4.595338566401175e-10	-1.8503999055451e-09	1.258883257503058e-09	4.026633052759453e-10	-4.835051286546036e-09	-1.102658255045595e-09	-2.142919832396247e-10
0.53	0.02403686022491774	0.05034491890333942	0.9307959579035174	0.2488693722844881	-0.2257958792555639	-0.3396260662359988	-0.3910342199956253	0.215552083445016	0.2155520834440605	-0.03934397410918457	-0.1712315803570932	0.001986714461119804	0.07508760978070536	0.07266291534196917	0.03978722142986843	0.01796162345774978	-0.2007698563283311	0.007475422082534152	-0.02267410043690436	-0.009427481122979035	-0.1154242573073229	-0.1154242573073166	-0.02672006834691967	0.01114895954800553	0.007100429496433628	0.0110568491805419	-0.02104518768259884	0.05882101014408832	-0.007111268507996715	-0.1690636317868493	0.1716660713378763	-0.06489234373569308	0.1139623311109511	4.369662205975125	25.16254376135378	-1.890032926557553	-0.5482742250811439	-704.3447583548865	-21.44845003551316	-22.10391876568578	0.1018185565912829	0.03515256131196125	0.01483175347958844	-0.2379074248651126	0.00937954619519033	-0.02690659416963576	-0.00272166616168302	-0.135504427547331	-0.1355044275449984	-0.03232623276635833	0.01433169996112762	-0.006485472349322225	0.007808296508162943	-4.561683879833087e-10	-1.866006569410362e-09	1.257419157939496e-09	3.9344298047418e-10	-4.818968933115109e-09	-1.106653935565474e-09	-2.163071484110644e-10
0.54	0.02476860828405417	0.05074452603629487	0.9309763129261674	0.246849768429257	-0.2257206542143441	-0.3398541619996817	-0.3911286716913275	0.2143910513830531	0.2143910513820673	-0.03961279386153332	-0.1711193814716307	0.002057360655902459	0.07519855720334979	0.07368452701315814	0.04013165381825291	0.01810823883948982	-0.2031420948584682	0.007569309855086929	-0.02294408975992659	-0.00946163031959147	-0.1167769956322662	-0.1167769956322718	-0.02704269311447171	0.0112903525731351	0.007027553223830921	0.01113182772419758	-0.02064624331178695	0.05888958651967747	-0.007116016139765689	-0.1684962529741325	0.1709848856218838	-0.06496281095992576	0.1137398188636477	4.149133859931769	25.21479245859659	-1.878981107885064	-0.4664546826429804	-704.316876558889	-21.41121781187745	-22.07865412272602	0.103497014136412	0.03378986565306679	0.0146657064572722	-0.2385026998212318	0.009489688972603725	-0.02747173031901701	-0.005169751406392521	-0.1363605594520927	-0.1363605594520929	-0.03249121101173619	0.01389339725367892	-0.008514923128702672	0.007118964921579441	-4.531311693243117e-10	-1.883722011001974e-09	1.257706314509352e-09	3.8029934206269e-10	-4.815025015184164e-09	-1.120333483976864e-09	-2.186962619646788e-10
